<svg xmlns="http://www.w3.org/2000/svg" viewBox="0 0 147.14 121.73"><defs><style>.cls-1{fill:#f2f2f2;}.cls-2{fill:#6c63ff;}.cls-3{fill:#575a89;}.cls-4{fill:#2f2e41;}.cls-5{fill:#ffb9b9;}.cls-6{opacity:0.1;isolation:isolate;}</style></defs><title>Asset 4</title><g id="Layer_2" data-name="Layer 2"><g id="Layer_1-2" data-name="Layer 1"><path class="cls-1" d="M109.69,116.78a23.23,23.23,0,0,0,30.92-34.51Z"/><path class="cls-1" d="M52.9,36.19,24.2,67.82a23.25,23.25,0,0,0,6.89,8.68L62,42A23.06,23.06,0,0,0,52.9,36.19Z"/><path class="cls-2" d="M52.78,36.2V17.7H37.68V36.15A23.32,23.32,0,0,1,52.78,36.2Z"/><path class="cls-2" d="M37.68,79.81V98.74h15.1v-19A23.32,23.32,0,0,1,37.68,79.81Z"/><path d="M45.31,81.28A23.31,23.31,0,1,1,68.62,58,23.32,23.32,0,0,1,45.31,81.28Zm0-46.44A23.14,23.14,0,1,0,68.45,58,23.17,23.17,0,0,0,45.31,34.84Z"/><path class="cls-3" d="M28.91,58a16.4,16.4,0,0,0,16.4,16.4h0V41.58A16.4,16.4,0,0,0,28.91,58Z"/><path class="cls-2" d="M45.31,41.58v32.8a16.4,16.4,0,1,0,0-32.8Z"/><circle class="cls-4" cx="45.31" cy="58.79" r="2.27"/><polygon class="cls-4" points="45.31 50.45 45.87 54.95 46.44 59.44 45.31 59.44 44.17 59.44 44.74 54.95 45.31 50.45"/><polygon class="cls-4" points="58.87 58.92 51.48 59.2 44.09 59.47 44.09 58.83 44.09 58.18 51.48 58.55 58.87 58.92"/><path d="M69.43,59.93c-.38,0-.53-.26-.72-.59l-.16-.26.13-.09c.07.1.12.19.17.27.19.33.3.51.58.51.94,0,1.7-1.57,1.7-3.5s-.76-3.49-1.7-3.49c-.54,0-.92.34-1.23,1.09l-.15-.06c.34-.82.76-1.19,1.38-1.19,1,0,1.87,1.64,1.87,3.65S70.46,59.93,69.43,59.93Z"/><ellipse class="cls-1" cx="47.58" cy="115.15" rx="22.09" ry="0.81"/><circle class="cls-1" cx="125.7" cy="25.98" r="3.41"/><path class="cls-1" d="M23.22,0A23.24,23.24,0,0,0,2.11,32.91L30.81,1.27A23.3,23.3,0,0,0,23.22,0Z"/><circle class="cls-4" cx="100.39" cy="38.08" r="5.07"/><path class="cls-5" d="M91.85,69.88s4.05,10.23,4.48,10.23,1.07-3.83,1.07-3.83L94.84,69Z"/><path class="cls-5" d="M97.82,42s1.07,4.48.64,5.33.86,2.14.86,2.14h3L104.43,46l.43-1.49s-1.28-3.41-1.07-3.84S97.82,42,97.82,42Z"/><path class="cls-6" d="M97.82,42s1.07,4.48.64,5.33.86,2.14.86,2.14h3L104.43,46l.43-1.49s-1.28-3.41-1.07-3.84S97.82,42,97.82,42Z"/><polygon class="cls-3" points="109.76 114.44 109.76 116.78 112.53 117.42 112.75 114.44 109.76 114.44"/><path class="cls-4" d="M98.46,72.44s-3,5.33-1.92,8.1S101.66,97,101.66,97s2.34,7.68,2.34,8.1,1.92,9.81,2.56,10,6.4.86,6.61.22.43-4.05-.21-4.69-4-20.47-4-20.47l-.43-6.61,5.33,16.42s1.49,9.8,2.13,10.44-1.28,1.28-.64,1.92,3,2.35,2.77,3,5.12.64,5.76.21.43-7,.43-7l-3-9-3.41-21.74s-1.06-6.4-1.92-6.4S98.46,72.44,98.46,72.44Z"/><path class="cls-4" d="M110.4,115.93s-1.71-1.5-2.56-1.07-3.62,4.48-4.47,4.26-2.14,2.3,0,2.51a31.35,31.35,0,0,0,5.54-.21,15.21,15.21,0,0,0,2.13.21c.85,0,2.77.22,2.77,0s-.43-5.06-.64-5.06S110.61,116.57,110.4,115.93Z"/><path class="cls-4" d="M122.13,114.43s-2.14-.42-2.35,0a20.9,20.9,0,0,0-1.07,1.92c0,.22.43,2.77.43,3a3.35,3.35,0,0,0,.85,1.28.75.75,0,0,1,.22.85s5.54.64,5.54-.21a7.05,7.05,0,0,0-1.07-3.2C124.26,117.63,123.4,114.65,122.13,114.43Z"/><circle class="cls-5" cx="100.38" cy="39.4" r="4.48"/><path class="cls-2" d="M98.68,47.5s2.55,1.49,4-.86,6.18,4.69,6.18,4.69l1.28,21.75a42.91,42.91,0,0,0-6.4,1.28c-4.05,1.06-6-1.5-6-1.5L97.61,60.5,98,54.74l-.64-4.69.42-2.77Z"/><path class="cls-2" d="M94,50.27s-1.71.42-2.14,3.41-1.28,11.94-1.28,11.94L91.64,71s3-2.35,4-1.28l-.64-3.2.64-1.92-1.92-8.31Z"/><path class="cls-3" d="M98.23,43.87s-.41,0-.41,1.49-4,3.63-4,3.63a4.62,4.62,0,0,0-.42,2.34c0,1.71,0,5.76.42,7s1.07,5.54,1.28,6a4.22,4.22,0,0,1-.21,2.77c-.43.43,1.06,3,1.49,3.2s-1.49,5.75-.43,6,3-2.56,3.63-4,.21-22.18,0-23.67A38.27,38.27,0,0,0,98.23,43.87Z"/><path class="cls-3" d="M104.16,42.5s-.16-1,.91-.12a3.76,3.76,0,0,1,1.28,1.49s5.54,0,5.76.64a54.83,54.83,0,0,1-.13,6.08L114.78,61s3.93,12.07,4.36,12.49-3.41-1.91-5.54-.21-6,2.56-6.4,1.49S102.09,49,102.09,49s0-4.05.64-4.48A7,7,0,0,0,104.16,42.5Z"/><path class="cls-5" d="M115.52,62.63l-.86,9.81-.21.85,3.2,4.26a10.18,10.18,0,0,0,.42-3.19c-.21-.86,1.07-10.45,1.07-10.45Z"/><path class="cls-4" d="M96.88,36.21s-1-2.69.46-3.57l.42,1.19s3.78-2.28,4.76-1.76l-.93,1.24s4.4,0,4.71,1.71l-1.55,0a4,4,0,0,1,1.71,2.85l-3.32.21,1.61.93s-6,.83-7.46-1.55Z"/><path class="cls-4" d="M96,36.32s1.19,2.39,2.78,1.79,0-2.78,0-2.78l-1.06-.54Z"/><rect x="87.86" y="121.56" width="46.45" height="0.16"/><path class="cls-2" d="M111.68,44.94a3.32,3.32,0,0,1,2.13,1.7c.85,1.5,5.12,11.3,5.33,11.73s.21,6.18.21,6.18-3-1.7-4.26-.64l-.21-2.56-2.77-9.8-.43-3.2Z"/></g></g></svg>