<svg xmlns="http://www.w3.org/2000/svg" xmlns:xlink="http://www.w3.org/1999/xlink" viewBox="0 0 145.68 110.15"><defs><style>.cls-1,.cls-5,.cls-6{fill:#6c63ff;}.cls-1,.cls-21,.cls-22,.cls-3{opacity:0.1;}.cls-1,.cls-10,.cls-18,.cls-22,.cls-28,.cls-3,.cls-6{isolation:isolate;}.cls-2{fill:#535f89;}.cls-4{fill:#dce2ed;}.cls-10,.cls-6{opacity:0.2;}.cls-7{fill:#dea3a2;}.cls-8{fill:none;}.cls-9{fill:#a8a8a8;}.cls-11{fill:#dce0ed;}.cls-12{fill:#f0f0f4;}.cls-13{fill:#636780;}.cls-14{fill:url(#linear-gradient);}.cls-15{fill:#f899a5;}.cls-16{fill:#f3b4b4;}.cls-17{fill:#bdd3e8;}.cls-18{opacity:0.05;}.cls-19{fill:#e6ebef;}.cls-20{fill:#4b3648;}.cls-22,.cls-26{fill:#fff;}.cls-23{fill:#4c4981;}.cls-24{fill:#ceddf9;}.cls-25{fill:#fec2be;}.cls-27{fill:#9a5e7f;}.cls-28{opacity:0.15;}</style><linearGradient id="linear-gradient" x1="94.14" y1="-3633.96" x2="94.14" y2="-3615.43" gradientTransform="matrix(1, 0, 0, -1, -48.43, -3556.83)" gradientUnits="userSpaceOnUse"><stop offset="0" stop-color="gray" stop-opacity="0.25"/><stop offset="0.54" stop-color="gray" stop-opacity="0.12"/><stop offset="1" stop-color="gray" stop-opacity="0.1"/></linearGradient></defs><title>Asset 5</title><g id="Layer_2" data-name="Layer 2"><g id="Layer_1-2" data-name="Layer 1"><path class="cls-1" d="M6.76,43.68a22.72,22.72,0,0,0,14.36,14c15.45,5.32,50.3,2.58,76.3-.57,13.46-1.63,25.28-6.12,33.87-12.45Z"/><path class="cls-1" d="M143.14,14.93H128.87c-.68,0-1.23-.35-1.23-.79s.55-.79,1.23-.79h2.47c-.68,0-1.23-.36-1.23-.79s.55-.79,1.23-.79h-1.76c-.68,0-1.24-.36-1.24-.8s.56-.79,1.24-.79H137a28.5,28.5,0,0,0-5.81-1c-20.31-1.68-27.56-.57-30.12.57a37.54,37.54,0,0,1-10.43,2.94c-12.54,1.66-36,3.67-57.21-.64-10.55-2.14-18.4,1.47-23.1,7.51H145.61a10.09,10.09,0,0,0-1.67-4.79A1.6,1.6,0,0,1,143.14,14.93Z"/><path class="cls-1" d="M5.55,30.94A26.21,26.21,0,0,0,6.1,41.59l125.28,2.95A41.61,41.61,0,0,0,140.09,36Zm49.55,7.6H52.64c.67,0,1.23.35,1.23.79s-.56.79-1.23.79H38.37c-.68,0-1.23-.35-1.23-.79s.55-.79,1.23-.79h2.47c-.68,0-1.23-.36-1.23-.8s.55-.79,1.23-.79H39.07c-.68,0-1.24-.36-1.24-.79s.56-.79,1.24-.79H53.34c.67,0,1.23.35,1.23.79S54,37,53.34,37H55.1c.68,0,1.23.36,1.23.79s-.55.8-1.23.8Z"/><path class="cls-1" d="M145.62,19.59,8.84,21.73a25,25,0,0,0-3.27,9.08H143.22a26.23,26.23,0,0,0,2-5.79A17.61,17.61,0,0,0,145.62,19.59Zm-112.28,7H30.87c.68,0,1.23.36,1.23.79s-.55.8-1.23.8H16.61c-.68,0-1.24-.36-1.24-.8s.56-.79,1.24-.79h2.46c-.68,0-1.23-.36-1.23-.79s.55-.79,1.23-.79H17.31c-.68,0-1.24-.36-1.24-.8s.56-.79,1.24-.79H31.57c.68,0,1.23.36,1.23.79s-.55.8-1.23.8h1.76c.68,0,1.23.35,1.23.79S34,26.6,33.34,26.6Z"/><rect class="cls-2" x="76.69" y="34.81" width="0.74" height="40.55"/><path class="cls-2" d="M78.12,83a1.94,1.94,0,0,1-2.35,0c-.33-2.17.5-6.44.7-7.4l0-.19h.95a.48.48,0,0,1,.15.22C78.26,77,78.12,83,78.12,83Z"/><path class="cls-3" d="M77.26,74.48v.88h-.39v-.88h.39Z"/><path class="cls-3" d="M77.6,75.58a1,1,0,0,1-.54.13,1.1,1.1,0,0,1-.59-.15l0-.2h.94A.74.74,0,0,1,77.6,75.58Z"/><ellipse class="cls-4" cx="77.06" cy="75.09" rx="0.79" ry="0.47"/><polygon class="cls-5" points="73.57 28.28 76.37 26.94 80.49 27.93 77.29 25.51 73.57 28.28"/><polygon class="cls-5" points="74.39 28.71 73.57 28.28 76.37 26.94 80.49 27.93 79.76 28.28 76.37 27.52 74.39 28.71"/><polygon class="cls-3" points="74.39 28.71 73.57 28.28 76.37 26.94 80.49 27.93 79.76 28.28 76.37 27.52 74.39 28.71"/><polygon class="cls-6" points="74.28 28.39 76.53 34.69 77.64 34.69 79.72 28 76.37 27.22 74.28 28.39"/><polygon class="cls-5" points="78.19 32.92 77.75 34.35 77.64 34.69 76.53 34.69 76.44 34.46 75.92 32.99 76.76 32.48 78.19 32.92"/><polygon class="cls-6" points="76.37 27.52 76.9 34.69 76.53 34.69 74.39 28.71 76.37 27.52"/><polygon class="cls-3" points="77.29 25.51 76.37 26.94 73.57 28.28 77.29 25.51"/><path class="cls-3" d="M77.75,34.35l-.11.34H76.53l-.09-.23a.91.91,0,0,1,.72-.26A1,1,0,0,1,77.75,34.35Z"/><path class="cls-3" d="M77.26,34.81v.62h-.1a1.35,1.35,0,0,1-.29,0v-.58Z"/><ellipse class="cls-4" cx="77.16" cy="34.81" rx="0.79" ry="0.47"/><rect class="cls-2" x="105.53" y="54.53" width="0.49" height="26.81"/><path class="cls-2" d="M106.48,86.36a1.29,1.29,0,0,1-1.56,0,18.77,18.77,0,0,1,.46-4.89l0-.13H106a.33.33,0,0,1,.1.14C106.56,82.41,106.48,86.36,106.48,86.36Z"/><path class="cls-3" d="M105.91,80.76v.58h-.27v-.58h.27Z"/><path class="cls-3" d="M106.13,81.48a.74.74,0,0,1-.36.09.77.77,0,0,1-.39-.11l0-.13H106A.44.44,0,0,1,106.13,81.48Z"/><ellipse class="cls-4" cx="105.77" cy="81.16" rx="0.52" ry="0.31"/><polygon class="cls-5" points="103.47 50.22 105.31 49.33 108.04 49.98 105.92 48.38 103.47 50.22"/><polygon class="cls-5" points="104 50.5 103.47 50.22 105.31 49.33 108.04 49.98 107.56 50.22 105.31 49.71 104 50.5"/><polygon class="cls-3" points="104 50.5 103.47 50.22 105.31 49.33 108.04 49.98 107.56 50.22 105.31 49.71 104 50.5"/><polygon class="cls-6" points="103.93 50.29 105.42 54.46 106.16 54.46 107.53 50.03 105.31 49.52 103.93 50.29"/><polygon class="cls-5" points="106.52 53.28 106.23 54.23 106.16 54.46 105.42 54.46 105.36 54.3 105.02 53.33 105.57 52.99 106.52 53.28"/><polygon class="cls-6" points="105.31 49.71 105.67 54.46 105.42 54.46 104 50.5 105.31 49.71"/><polygon class="cls-3" points="105.92 48.38 105.31 49.33 103.47 50.22 105.92 48.38"/><path class="cls-3" d="M106.23,54.23l-.07.23h-.74l-.06-.16a.66.66,0,0,1,.48-.18A.79.79,0,0,1,106.23,54.23Z"/><path class="cls-3" d="M105.91,54.53v.41h-.07l-.2,0v-.39Z"/><ellipse class="cls-4" cx="105.84" cy="54.53" rx="0.52" ry="0.31"/><ellipse class="cls-1" cx="58.77" cy="104.34" rx="58.77" ry="5.81"/><path class="cls-7" d="M59,90.82s-11.78-.5-13-23.56,11-27,11-27,3.89-2.18,5.61-2.27,7.49.46,7.49.46l-6.35-1.23s8.94-3.4,11.62-3.67l-9.67,2s-.13-5.36,2.18-7.13c0,0-2-.14-3,3.71a7.37,7.37,0,0,1-4.41,5c-3.59,1.39-8.54,3.6-9.67,5.49,0,0-2.09,2.18-1.77-3.49s1.81-10.53,2.36-10.67c0,0,4.26-4.54,10.26-4.81,0,0-3.5-1.41-9.4,3,0,0-.5-2.23,1.72-4.86s5.68-8.17,9.44-8.76c0,0-5.26-.32-9.44,6.49,0,0-1.54,1-1.67-1.54a31.49,31.49,0,0,0-1-5.72S50,18.15,52.66,20.78c0,0-5.13,6.67-4.9,14.16,0,0-1.59,3.4-2.18-.59,0,0-.34-5.5-1-10.17a13.88,13.88,0,0,1,2.9-10.66c1.14-1.41,1.93-2.78,1.49-3.5L43,17.1S38,5.53,34.37,3a29.07,29.07,0,0,1-4.09-3l5.85,6.85L28.78,4.26l7.35,3.4S39.54,10.43,41.49,18a64.59,64.59,0,0,1,2.13,12.3s-10.48-8.31-12.48-8l6.79,5.14A16.12,16.12,0,0,1,44.3,39.2h0s-13.11-3.36-16.29-4l-6-6.13,4.54,5.81-9.35-.13L11.85,31s4.23,3.54,3.82,3.77-6.59.49-6.59.49,15.71-.09,17.44,1S32.1,37.8,32.1,37.8L21,39.48l13.25-.95s10,1.81,10.58,4.94a59.94,59.94,0,0,1-3.41,7.45,34.44,34.44,0,0,0-3.85,12.43c-.46,5-1.09,12.67.63,17.34s2.36,7.35,1.5,8.76S38,92.67,40.81,93,56,92.86,56,92.86,59.74,93.59,59,90.82Z"/><path class="cls-3" d="M52.41,88.34a5.89,5.89,0,0,0-4-.5,23.92,23.92,0,0,1-6.17.18"/><path class="cls-3" d="M45,61.16s-.56,8.87.44,10.62Z"/><path class="cls-3" d="M42.94,71.78s.72,8.31,1.22,9.94S42.94,71.78,42.94,71.78Z"/><path class="cls-3" d="M42.24,51.35c-.51.19-2.7,4.63-2.26,5.94S42.24,51.35,42.24,51.35Z"/><path class="cls-3" d="M47.78,46.75a7.13,7.13,0,0,0-1.05,3.42C46.93,50.92,47.78,46.75,47.78,46.75Z"/><path class="cls-3" d="M38.32,61.65A33.11,33.11,0,0,1,38.54,68a24.92,24.92,0,0,0,.07,4.81"/><path class="cls-3" d="M65.7,31.65A2.08,2.08,0,0,0,65.27,33c0,.46,0,.93,0,1.4s-.27,1.06-.76,1.13"/><path class="cls-3" d="M57.32,16.29a11.52,11.52,0,0,0-1.65,2,4.88,4.88,0,0,1-.46.66,9.07,9.07,0,0,1-.9.74A4.24,4.24,0,0,0,52.87,22"/><path class="cls-3" d="M33.59,3a3.17,3.17,0,0,0,.58.78c.21.19.44.36.63.57a5.57,5.57,0,0,1,.4.59,14.83,14.83,0,0,0,1.67,2.12"/><path class="cls-3" d="M44.58,16.16a1.34,1.34,0,0,0-.48,1.23A3.69,3.69,0,0,1,44,18.76c-.08.19-.2.36-.28.56a2.7,2.7,0,0,0-.14,1.06c0,.42,0,.84,0,1.26A2.16,2.16,0,0,0,44,23.05"/><path class="cls-8" d="M41.29,29.19a4.74,4.74,0,0,1,1,.7,1.79,1.79,0,0,1,.59,1.05,4.53,4.53,0,0,0,.05.53,1.74,1.74,0,0,0,.35.64,7.76,7.76,0,0,0,.86,1"/><path class="cls-3" d="M44.25,41a6,6,0,0,0-.82-.57,3.16,3.16,0,0,0-.84-.37,9.23,9.23,0,0,0-1.4-.15,2,2,0,0,1-1.27-.53"/><path class="cls-3" d="M25.8,35.29a3.88,3.88,0,0,1,1.62.29c.25.13.46.32.71.45a2.25,2.25,0,0,0,1,.28"/><path class="cls-3" d="M33.46,37.57a.31.31,0,0,0-.4.1c-.1.11-.15.26-.25.37a1.19,1.19,0,0,1-.83.25"/><path class="cls-3" d="M36.61,25.84l.53.28a10.41,10.41,0,0,1,1.57.95"/><path class="cls-3" d="M42.68,31c.35-.08.65.29.71.65a9.65,9.65,0,0,0,.09,1.07,2,2,0,0,0,.53.78"/><path class="cls-3" d="M48.58,31.68c.32,1-.35,2-.16,3,.06.3.2.58.27.88a2.66,2.66,0,0,1-.64,2.22"/><rect class="cls-2" x="28.69" y="23.99" width="0.92" height="50.62"/><path class="cls-2" d="M30.48,84.07a2.4,2.4,0,0,1-2.94,0c-.41-2.71.63-8,.88-9.22l0-.25h1.17a1.07,1.07,0,0,1,.19.28C30.64,76.61,30.48,84.07,30.48,84.07Z"/><path class="cls-3" d="M29.4,73.51V74.6h-.49V73.51l.24,0Z"/><path class="cls-3" d="M29.83,74.88a1.48,1.48,0,0,1-.68.16,1.33,1.33,0,0,1-.73-.19l0-.25h1.17A1.07,1.07,0,0,1,29.83,74.88Z"/><ellipse class="cls-4" cx="29.15" cy="74.26" rx="0.99" ry="0.59"/><polygon class="cls-5" points="24.79 15.83 28.28 14.16 33.43 15.39 29.43 12.38 24.79 15.83"/><polygon class="cls-5" points="25.81 16.37 24.79 15.83 28.28 14.16 33.43 15.39 32.52 15.83 28.28 14.88 25.81 16.37"/><polygon class="cls-3" points="25.81 16.37 24.79 15.83 28.28 14.16 33.43 15.39 32.52 15.83 28.28 14.88 25.81 16.37"/><polygon class="cls-6" points="25.68 15.97 28.48 23.84 29.88 23.84 32.47 15.49 28.28 14.51 25.68 15.97"/><polygon class="cls-5" points="30.56 21.63 30.01 23.41 29.88 23.84 28.48 23.84 28.38 23.55 27.72 21.71 28.78 21.08 30.56 21.63"/><polygon class="cls-6" points="28.28 14.88 28.95 23.84 28.48 23.84 25.81 16.37 28.28 14.88"/><polygon class="cls-3" points="29.43 12.38 28.28 14.16 24.79 15.83 29.43 12.38"/><path class="cls-3" d="M30,23.41l-.13.43h-1.4l-.1-.29a1.16,1.16,0,0,1,.89-.34A1.47,1.47,0,0,1,30,23.41Z"/><path class="cls-3" d="M29.4,24v.76h-.13a1.55,1.55,0,0,1-.37,0V24Z"/><ellipse class="cls-4" cx="29.27" cy="23.99" rx="0.99" ry="0.59"/><ellipse class="cls-1" cx="120.71" cy="90.81" rx="2.22" ry="0.38"/><path class="cls-9" d="M119.22,89.07a4.64,4.64,0,0,0,1.64-.31c.39-.28,2-.6,2-.16s1.9,2.16.47,2.18a12.15,12.15,0,0,1-3.7-.46C119.3,90.09,119.22,89.07,119.22,89.07Z"/><path class="cls-10" d="M123.41,90.62a11.87,11.87,0,0,1-3.7-.45c-.29-.18-.41-.81-.45-1.1h0s.08,1,.46,1.25a12.28,12.28,0,0,0,3.71.46c.41,0,.55-.16.55-.37C123.87,90.54,123.71,90.62,123.41,90.62Z"/><ellipse class="cls-1" cx="133.59" cy="86.44" rx="1.71" ry="0.29"/><path class="cls-9" d="M132.44,85.1a3.8,3.8,0,0,0,1.27-.24c.29-.21,1.5-.46,1.57-.13s1.47,1.67.37,1.68a9.18,9.18,0,0,1-2.85-.35C132.5,85.88,132.44,85.1,132.44,85.1Z"/><path class="cls-10" d="M135.67,86.29a9.23,9.23,0,0,1-2.85-.35c-.23-.13-.32-.62-.35-.85h0s.06.79.36,1a9.23,9.23,0,0,0,2.85.35c.31,0,.42-.12.42-.28C136,86.23,135.9,86.29,135.67,86.29Z"/><ellipse class="cls-1" cx="125.83" cy="104.7" rx="4.08" ry="0.69"/><path class="cls-9" d="M123.09,101.5a8.75,8.75,0,0,0,3-.57c.7-.5,3.58-1.1,3.76-.3s3.49,4,.87,4-6.11-.41-6.8-.84S123.09,101.5,123.09,101.5Z"/><path class="cls-10" d="M130.79,104.36c-2.62,0-6.1-.41-6.8-.84-.53-.32-.75-1.49-.82-2h-.08s.15,1.88.86,2.31,4.18.86,6.8.84c.76,0,1-.28,1-.68C131.65,104.2,131.36,104.35,130.79,104.36Z"/><path class="cls-7" d="M83.74,72.27S90.5,72,91.22,58.74s-6.34-15.49-6.34-15.49A12.06,12.06,0,0,0,81.65,42c-1-.05-4.3.26-4.3.26l3.65-.7a50.69,50.69,0,0,0-6.67-2.12l5.54,1.18s.08-3.08-1.25-4.1c0,0,1.14-.08,1.74,2.13a4.24,4.24,0,0,0,2.54,2.85c2.06.8,4.9,2.07,5.55,3.16,0,0,1.2,1.25,1-2s-1-6.05-1.36-6.13a9.6,9.6,0,0,0-5.89-2.76s2-.81,5.4,1.72a3.5,3.5,0,0,0-1-2.79c-1.28-1.52-3.26-4.7-5.43-5,0,0,3-.19,5.43,3.72,0,0,.88.58,1-.88a18.23,18.23,0,0,1,.6-3.29s.73,3.36-.81,4.88c0,0,3,3.83,2.82,8.13,0,0,.91,2,1.25-.34,0,0,.19-3.16.59-5.84a8,8,0,0,0-1.67-6.12c-.65-.81-1.1-1.6-.85-2l3.41,4.07s2.87-6.65,5-8.09a17.58,17.58,0,0,0,2.34-1.74L96.88,24l4.22-1.49-4.22,2s-2,1.58-3.08,5.94a37,37,0,0,0-1.22,7.06s6-4.76,7.16-4.61l-3.89,3a9.29,9.29,0,0,0-3.67,6.77h0s7.53-1.93,9.36-2.29L105,36.81l-2.6,3.34,5.37-.08,3.07-2.19s-2.42,2-2.19,2.16,3.78.29,3.78.29-9,0-10,.6a9.64,9.64,0,0,1-3.21.89l6.39,1L98,42.24s-5.76,1-6.07,2.84a34.3,34.3,0,0,0,1.95,4.28,19.71,19.71,0,0,1,2.22,7.14c.26,2.87.62,7.27-.37,10s-1.35,4.22-.86,5,1,1.85-.65,2.06-8.71-.11-8.71-.11S83.32,73.86,83.74,72.27Z"/><path class="cls-3" d="M87.53,70.85a3.31,3.31,0,0,1,2.29-.29,13.81,13.81,0,0,0,3.55.1"/><path class="cls-3" d="M91.77,55.24s.33,5.09-.25,6.1Z"/><path class="cls-3" d="M93,61.34s-.42,4.77-.7,5.7S93,61.34,93,61.34Z"/><path class="cls-3" d="M93.37,49.6c.29.11,1.55,2.66,1.3,3.41S93.37,49.6,93.37,49.6Z"/><path class="cls-3" d="M90.19,47a4.06,4.06,0,0,1,.6,2C90.67,49.35,90.19,47,90.19,47Z"/><path class="cls-3" d="M95.62,55.51a20.14,20.14,0,0,0-.13,3.64,13.4,13.4,0,0,1,0,2.76"/><path class="cls-3" d="M79.9,38.29a1.18,1.18,0,0,1,.24.75c0,.26,0,.53,0,.8s.16.61.44.65"/><path class="cls-3" d="M84.71,29.46a6.68,6.68,0,0,1,.94,1.18,3.28,3.28,0,0,0,.27.38,4.06,4.06,0,0,0,.51.42,2.48,2.48,0,0,1,.83,1.3"/><path class="cls-3" d="M98.34,21.85a1.79,1.79,0,0,1-.34.44c-.11.12-.25.21-.36.33l-.23.34a8.74,8.74,0,0,1-1,1.22"/><path class="cls-3" d="M92,29.39a.81.81,0,0,1,.28.7,2.15,2.15,0,0,0,0,.8c.05.11.12.21.17.32a1.56,1.56,0,0,1,.08.61c0,.24,0,.48,0,.72a1.25,1.25,0,0,1-.23.81"/><path class="cls-8" d="M93.92,36.87a3.35,3.35,0,0,0-.59.39,1.07,1.07,0,0,0-.34.61c0,.1,0,.21,0,.31a.92.92,0,0,1-.2.36,4.28,4.28,0,0,1-.49.55"/><path class="cls-3" d="M92.21,43.67a3.55,3.55,0,0,1,.47-.32,1.94,1.94,0,0,1,.49-.22,5.42,5.42,0,0,1,.8-.08,1.11,1.11,0,0,0,.73-.3"/><path class="cls-3" d="M102.82,40.38a2.23,2.23,0,0,0-.93.16c-.14.08-.26.19-.41.27a1.2,1.2,0,0,1-.59.15"/><path class="cls-3" d="M98.42,41.69a.17.17,0,0,1,.22.05c.06.07.09.15.15.21a.64.64,0,0,0,.47.15"/><path class="cls-3" d="M96.6,35l-.3.16a5.16,5.16,0,0,0-.9.55"/><path class="cls-3" d="M93.12,37.93c-.2,0-.37.17-.41.37s0,.42,0,.61a1.08,1.08,0,0,1-.3.45"/><path class="cls-3" d="M89.73,38.3c-.18.54.2,1.14.09,1.7,0,.17-.11.33-.16.5A1.55,1.55,0,0,0,90,41.78"/><path class="cls-5" d="M50.33,49.22c-2.17,2.93-4,11.53-4.46,14.12l-3.77-.15C42.33,61,46.9,52,48.17,49.48,48.85,49.39,49.58,49.3,50.33,49.22Z"/><rect class="cls-11" x="95.84" y="48.18" width="1.67" height="2.36"/><path class="cls-3" d="M97.52,48.18V49a1.5,1.5,0,0,1-.37,0H95.84v-.81Z"/><path class="cls-11" d="M95.13,42.18h1.59a1.91,1.91,0,0,1,1.76,1.18,5.38,5.38,0,0,1-.18,4.76,1.31,1.31,0,0,1-1.14.66l-2,0Z"/><ellipse class="cls-12" cx="95.13" cy="45.47" rx="1.69" ry="3.29"/><rect class="cls-11" x="80.97" y="48.21" width="1.67" height="2.06"/><path class="cls-3" d="M82.65,48.21v.66a1.18,1.18,0,0,1-.37.05H81v-.69Z"/><path class="cls-11" d="M80.26,42.2h1.59a1.92,1.92,0,0,1,1.76,1.19,5.38,5.38,0,0,1-.18,4.76,1.31,1.31,0,0,1-1.14.66l-2,0Z"/><ellipse class="cls-12" cx="80.26" cy="45.5" rx="1.69" ry="3.29"/><path class="cls-11" d="M80.69,43.41s-.63.1-.3.92a5.45,5.45,0,0,1,.37,1.25s.63.32.6-.75A1.59,1.59,0,0,0,80.69,43.41Z"/><ellipse class="cls-13" cx="17.25" cy="90.45" rx="9.88" ry="10.83"/><path class="cls-3" d="M21,80.3c-5.17.35-9.26,5-9.26,10.81a10.84,10.84,0,0,0,6.39,10.13c5.17-.35,9.27-5,9.27-10.8A10.84,10.84,0,0,0,21,80.3Z"/><ellipse class="cls-13" cx="94.55" cy="66.79" rx="8.02" ry="10.45"/><path class="cls-3" d="M92.31,56.78c-3.33,1.27-5.75,5.28-5.75,10,0,5.07,2.77,9.3,6.45,10.25,3.32-1.27,5.75-5.28,5.75-10C98.76,62,96,57.73,92.31,56.78Z"/><path class="cls-5" d="M64.44,64.56l.14-3.79S63.84,59.13,63.1,59s-2.46-.24-2.46-.24-1.34,5.45-.44,7.09S64.44,64.56,64.44,64.56Z"/><path class="cls-3" d="M64.44,64.56l.14-3.79S63.84,59.13,63.1,59s-2.46-.24-2.46-.24-1.34,5.45-.44,7.09S64.44,64.56,64.44,64.56Z"/><path class="cls-5" d="M50.71,64.15s-.46-5.26,2.43-5.35c.37,0,.74,0,1.11-.06,2-.2,7.47-.62,6.82.63,0,0-1.3,4.58-.41,5.73Z"/><path class="cls-5" d="M91.69,73.91l3.87.11s.67-7.14.9-7.7.33-3.24-.39-3.63a18.74,18.74,0,0,0-3.16-.86L91.13,65.9,91,69.58Z"/><path class="cls-3" d="M91.69,73.91l3.87.11s.67-7.14.9-7.7.33-3.24-.39-3.63a18.74,18.74,0,0,0-3.16-.86L91.13,65.9,91,69.58Z"/><path class="cls-5" d="M82.31,62.05l0-.79a.47.47,0,0,1,.45-.47h0c1.92.08,8.92.42,10.14,1,0,0-1.34,10,.14,12.33l-.5,8L75.42,80.86Z"/><path class="cls-3" d="M81,49.47l1.68-.15v1H81Z"/><path class="cls-3" d="M97.52,50.42v.12H95.84v-.72A7.16,7.16,0,0,1,97.52,50.42Z"/><path class="cls-14" d="M50.32,62.09a.21.21,0,0,1,.06-.1h.12v.07h0l-.24.24Zm6.06-1.77v0a5,5,0,0,1,.29-.62,5.54,5.54,0,0,0-.29.65Zm.9-1.71c-.14.21-.31.48-.48.8a3.4,3.4,0,0,1,.48-.8ZM33.69,77.09c.67,0,1.23,0,1.23,0A4.86,4.86,0,0,1,33.69,77.09Zm1.23,0a1.36,1.36,0,0,1,.85-.1,2.17,2.17,0,0,0-.85.1ZM57.48,66.94l.24-4.22s-.09,2.15-.06,3.09a3.11,3.11,0,0,1-.18,1.13Z"/><path class="cls-15" d="M43.42,75l-.16.5a7.11,7.11,0,0,1-.43,1.11,6.37,6.37,0,0,1-1.25.13A3.84,3.84,0,0,1,39,75.94l.66-.5a4.32,4.32,0,0,0,.77-.72,3.47,3.47,0,0,1,1-.76l.26-.15Z"/><path class="cls-16" d="M42.68,76.9s-6.17-.28-6.54-.36a.68.68,0,0,1-.45-.52c-.12-.29.53-.23.53-.23h0c.07,0,.8.14,1.48.22h0a4.65,4.65,0,0,0,1.19.07h0a2.21,2.21,0,0,1,.82-.07,2,2,0,0,0-1.66-1.34l0,0a2.42,2.42,0,0,1,.36-.27c1.25.06,1.92,1.79,1.92,1.79h0c.14,0,1.66.52,2,.56h0C42.64,76.78,42.68,76.9,42.68,76.9Z"/><path class="cls-15" d="M39.45,77.45c0,.08-.13.13-.31.15a1.31,1.31,0,0,1-.28,0h0a6.32,6.32,0,0,1-1.72-.39l-.27-.08h0a3.67,3.67,0,0,0-.64-.14,1.36,1.36,0,0,0-.83.11h0s-.54,0-1.19,0h0a9.28,9.28,0,0,1-1.48-.15h0l-.2-.05a2.26,2.26,0,0,1-.33-.13c-.68-.41,1.62-.69,1.62-.69a1.16,1.16,0,0,0,.69-.34l0,0,.06-.06h0l.28-.22.09,0c.45-.31,1.07-.64,1.07-.64a2.66,2.66,0,0,0,1.14-.65,1.39,1.39,0,0,0,.15-.19h0l1.27-.33.88,2.1s0,.12,0,.29A8.83,8.83,0,0,1,39.45,77.45Z"/><path class="cls-3" d="M39.14,77.6a1.31,1.31,0,0,1-.28,0h0a6.32,6.32,0,0,1-1.72-.39l-.27-.08h0a3.67,3.67,0,0,0-.64-.14,1.36,1.36,0,0,0-.83.11h0s-.54,0-1.19,0h0a9.28,9.28,0,0,1-1.48-.15h0l-.2-.05a1.13,1.13,0,0,1,.26,0h0l1.48.15h0a4.73,4.73,0,0,0,1.19,0h0a2.09,2.09,0,0,1,.82-.11,2,2,0,0,0-1.72-1.26s0,0,0,0h0l.34-.28h0c1.24,0,2,1.7,2,1.7h0c.15,0,1.68.45,2,.48h0A.84.84,0,0,1,39.14,77.6Z"/><path class="cls-16" d="M39.22,77.76s-6.18,0-6.56-.09-.46-.49-.46-.49c-.13-.28.51-.25.51-.25h0c.07,0,.79.1,1.48.16h0a4.53,4.53,0,0,0,1.19,0h0a2.27,2.27,0,0,1,.83-.1,2,2,0,0,0-1.73-1.27l0,0a1.54,1.54,0,0,1,.34-.28c1.26,0,2,1.7,2,1.7h0c.14,0,1.68.44,2,.47h0C39.17,77.63,39.22,77.76,39.22,77.76Z"/><path class="cls-3" d="M43.42,75l-.16.5a12.56,12.56,0,0,1-1.71-1.37.66.66,0,0,1-.14-.2l.26-.14Z"/><path class="cls-17" d="M47,72.36l-.22.71-2.1,1.14a3.4,3.4,0,0,0-.66.59.59.59,0,0,1-.33.27,3.69,3.69,0,0,0-.29.4,12.19,12.19,0,0,1-1.72-1.36c-.15-.17-.22-.31-.15-.39a23.15,23.15,0,0,1,1.92-1.52s1-1.32,1-1.29a7.28,7.28,0,0,0,.85-.74l.2-.19Z"/><path class="cls-15" d="M57,58.08,55,61.7l-.75,1.43-4-.59.09-.19.34-.71.16-.32,0,0,.44-.8,0,0L51.6,60l.64-.92a.54.54,0,0,0,.22,0,.51.51,0,0,0,.24-.28,3,3,0,0,0-.19-1.65s1.51-3.7,2-1.66a3.88,3.88,0,0,0,2.11,2.51Z"/><path class="cls-17" d="M50.13,70.51v.35s1.32,1.26,1.14,2.29a6.33,6.33,0,0,0,.2,2.32l1.33-.1-.21-4.7Z"/><path class="cls-18" d="M52.8,75.37l-1.33.1a6.29,6.29,0,0,1-.2-2.32c.18-1-1.14-2.29-1.14-2.29v-.35l2.46.16,0,.3Z"/><path class="cls-18" d="M45.44,70.37a10.72,10.72,0,0,0-1.16,1.27c-.47.62-1.27,1.51-1.27,1.51l-.95.57-.4.38c-.14-.16-.21-.3-.15-.38a23,23,0,0,1,1.93-1.52,16,16,0,0,1,1.05-1.29,7.48,7.48,0,0,0,.84-.74Z"/><path class="cls-3" d="M39.47,76a.52.52,0,0,0-.11.1s0,.62-.51-.84a1.39,1.39,0,0,0-1.69-1.1,0,0,0,0,1,0,0s.07-.11.16-.19h0l1.27-.33.87,2.1S39.46,75.78,39.47,76Z"/><path class="cls-17" d="M43.94,67.65l-.73,0-.51.72s-.84.9-1.09,1.12a17.26,17.26,0,0,0-2.35,2.56s-.43.21-.43.42-.81.84-.81.84-.86.58-.74.66A1.4,1.4,0,0,1,39,75.1c.48,1.46.5.83.5.83a1.33,1.33,0,0,1,.3-.23c.11,0,.66-.83.84-.85a.89.89,0,0,0,.34-.16l1-1,1-.57s.8-.89,1.27-1.51a11.56,11.56,0,0,1,1.16-1.27Z"/><path class="cls-3" d="M40.25,72.36s1.32.64,1.26.77S40.25,72.36,40.25,72.36Z"/><path class="cls-3" d="M41.29,72.2s.11.58.63.55S41.29,72.2,41.29,72.2Z"/><path class="cls-3" d="M39.45,73.82a.61.61,0,0,0,.57.39C40.5,74.27,39.45,73.82,39.45,73.82Z"/><path class="cls-3" d="M44.4,72.36s.64.26.7.63S44.4,72.36,44.4,72.36Z"/><path class="cls-3" d="M42.83,73.72a3.69,3.69,0,0,1,.94,1A9,9,0,0,1,42.83,73.72Z"/><path class="cls-3" d="M44,73.15a.44.44,0,0,1,.44.09C44.58,73.43,44,73.15,44,73.15Z"/><path class="cls-15" d="M48.67,66.8s-2.47-.8-2.28,0,2.28,1.25,2.28,1.25Z"/><path class="cls-3" d="M57,58.08,55,61.7l-.75,1.43-4-.59.09-.19a2.15,2.15,0,0,1,.32-.35,1.45,1.45,0,0,1,0-.36.76.76,0,0,1,.18-.37h0a2.73,2.73,0,0,0,.45-.82l0-.15.27-.3.85-1,.24-.28.23-.25-.81,1.15s-.39.7-.41.8-.66,1-.66,1-1.09,1,.85,1A4.08,4.08,0,0,0,55,60.48l1.65-2.54A1.83,1.83,0,0,0,57,58.08Z"/><polygon class="cls-3" points="52.61 70.97 51.85 70.92 50.13 70.78 50.13 70.51 52.59 70.67 52.61 70.97"/><path class="cls-19" d="M56.66,57.74a1.29,1.29,0,0,0,.7.41,4.79,4.79,0,0,0-.88,1.34s-1.09,1.83-.31,2.47a3.85,3.85,0,0,0,1.24.75l-.24,4.23A22.66,22.66,0,0,0,58,70.06a1,1,0,0,1,.16.7s-.14.49,0,.66a3.34,3.34,0,0,1,.19,1.07A6.08,6.08,0,0,0,57.26,72c-.19,0-.66-.91-.66-.91l-4.76-.33-2.09-.17.33-5.81a2.25,2.25,0,0,1,.35-2.77,1,1,0,0,1,.21-.73,3,3,0,0,0,.51-1l1.59-1.8h0l-.81,1.16s-.39.7-.41.8-.66,1-.66,1-1.09.95.86,1a4.11,4.11,0,0,0,3.13-1.88Z"/><path class="cls-3" d="M55.1,65.4a2.92,2.92,0,0,0,1.4.51C57.23,65.93,55.1,65.4,55.1,65.4Z"/><path class="cls-3" d="M56,63.83s.53-.27.83,0S56,63.83,56,63.83Z"/><path class="cls-3" d="M55.72,64.71s0,.31.83.35S55.72,64.71,55.72,64.71Z"/><path class="cls-15" d="M57.3,58.15l.17.09a3.71,3.71,0,0,0,1,.22,1.67,1.67,0,0,1,1.37,1.31,5.83,5.83,0,0,1,.08.58,12.52,12.52,0,0,1,0,2.37A7.64,7.64,0,0,0,59.83,64c.05.17-.32,2.88-.32,2.88s-.09,2.22-.65,2.42a24.6,24.6,0,0,1-3.64.21l-1.31-2.28,3.06.15a3,3,0,0,0,.38-1.58c0-.93.06-3.09.06-3.09s-1.85-.39-1.48-1.84A8.93,8.93,0,0,1,57.3,58.15Z"/><path class="cls-17" d="M51.47,75.47s-1.24.41-1.72.19a11.57,11.57,0,0,1-1.53-1s-.67-.66-1.31-1.4l-.09-.09h0a4.17,4.17,0,0,1-1-1.66,1.92,1.92,0,0,0-.05-.41,1.77,1.77,0,0,0-.27-.53,1.13,1.13,0,0,0-.23-.26l-2-2.61s.59-.62.59-.79a1.15,1.15,0,0,1,1.59-.62,18.44,18.44,0,0,1,2.19,1.84c1.26,1.16,2.55,2.42,2.55,2.42a2.42,2.42,0,0,1,.23.25,4.73,4.73,0,0,1,1,1.52C51.43,72.8,51.47,75.47,51.47,75.47Z"/><path class="cls-18" d="M50.35,70.76a9.67,9.67,0,0,1-3.44,2.47h0l-.05-.1h0l-1.11-2.07-.28-.53h0l2.12-2.44c1.26,1.16,2.55,2.42,2.55,2.42Z"/><path class="cls-17" d="M58.09,72.55V73s.61,2.16-.49,2.77a7,7,0,0,1-2.8.38,2.94,2.94,0,0,1-2.92-2.43,1.67,1.67,0,0,1,0-.63s-.5-3.54-.62-3.57-2.78,3.19-4.49,3.56l-1.44-2.69,2.3-2.64a18.43,18.43,0,0,1,2.2-3,3.62,3.62,0,0,0,1-.94s2-1.67,3.32,1.14,2.19,5.09,2.51,5.93c0,0,.47,1,.76,1h0A.67.67,0,0,1,58.09,72.55Z"/><path class="cls-3" d="M51.2,69.36a2.82,2.82,0,0,0,.59-1c.22-.64-.06.65-.54,1.17Z"/><path class="cls-20" d="M48.6,53.32a1,1,0,0,0,.3.5,8.53,8.53,0,0,0,1,.92,1,1,0,0,1,.35.41.63.63,0,0,1,0,.36,5.93,5.93,0,0,1-.52,1.28.77.77,0,0,0-.14.44c0,.35.53.54.88.77a1.44,1.44,0,0,1,.73,1.23c0,.71-.71,1.33-.87,2A3.38,3.38,0,0,0,51.58,61a1,1,0,0,0,.64-.82.25.25,0,0,1,0-.15.3.3,0,0,1,.19-.1c.35-.09.78-.06,1-.25a.67.67,0,0,0,.09-.82c-.3-.76-.74-1.49-1-2.25a1.57,1.57,0,0,1-.12-.8,2.66,2.66,0,0,1,.35-.77,4.75,4.75,0,0,0,.58-1.76,1.66,1.66,0,0,0-.14-1,1.73,1.73,0,0,0-1.16-.77c-1-.22-1.52.27-2.29.59C49.2,52.32,48.54,52.76,48.6,53.32Z"/><path class="cls-3" d="M50.29,61.21l.24,0c.17-.7.84-1.32.87-2a1.47,1.47,0,0,0-.73-1.23c-.35-.23-.85-.42-.89-.77a.89.89,0,0,1,.15-.44,5.9,5.9,0,0,0,.51-1.28.64.64,0,0,0,0-.36,1,1,0,0,0-.36-.41,9.35,9.35,0,0,1-1-.92.94.94,0,0,1-.3-.51c-.06-.55.59-1,1.18-1.24a4.94,4.94,0,0,1,1.7-.63,4.12,4.12,0,0,0-1.94.63c-.58.25-1.24.69-1.18,1.24a1,1,0,0,0,.3.51,8.53,8.53,0,0,0,1,.92,1,1,0,0,1,.35.41.63.63,0,0,1,0,.36,5.93,5.93,0,0,1-.52,1.28.79.79,0,0,0-.14.44c0,.35.53.54.88.77a1.44,1.44,0,0,1,.73,1.23C51.13,59.88,50.45,60.5,50.29,61.21Z"/><circle class="cls-3" cx="52.52" cy="54.85" r="3.11"/><circle class="cls-15" cx="52.58" cy="54.74" r="3.11"/><path class="cls-20" d="M50.66,53.28A1.23,1.23,0,0,1,50,52.9a.62.62,0,0,1,0-.78,1.22,1.22,0,0,1,.37-.16c.52-.23.61-1,1-1.55a1.15,1.15,0,0,1,1.07-.51,4.71,4.71,0,0,1,.64.19c.52.14,1.07,0,1.59.12a3.37,3.37,0,0,1,2.25,2.25c.2.5.33,1,.49,1.55a23.41,23.41,0,0,0,.84,2.3,1.66,1.66,0,0,0,.29.48c.33.34.92.32,1.12.77a1.59,1.59,0,0,1,0,.84,6.76,6.76,0,0,0,.25,2.86c.22.71.65,1.42,1.3,1.52a.73.73,0,0,1-1,.07,3.42,3.42,0,0,1-.7-1,7.58,7.58,0,0,0-.6-.88,1.41,1.41,0,0,0-.45-.39c-.45-.17-.92.19-1.31.51a2.22,2.22,0,0,1-1.07.56.85.85,0,0,1-.95-.58c-.15-.5.16-1.19-.17-1.55a2.52,2.52,0,0,0-.44-.28,1.72,1.72,0,0,1-.41-1.56A3.64,3.64,0,0,0,54,56a2,2,0,0,0-.53-.66,11.69,11.69,0,0,0-3.19-2.1"/><g class="cls-21"><path d="M56.37,61.54a.86.86,0,0,1-.94-.58c-.15-.5.15-1.19-.18-1.55a1.86,1.86,0,0,0-.44-.29c-.42-.29-.47-1-.41-1.56a3.36,3.36,0,0,0,0-1.7,2,2,0,0,0-.53-.66,11.5,11.5,0,0,0-3.19-2.11l.37.09a1.3,1.3,0,0,1-.66-.38.62.62,0,0,1,0-.78,1.22,1.22,0,0,1,.37-.16c.53-.23.61-1,1-1.55a1.33,1.33,0,0,1,.45-.4,1.19,1.19,0,0,0-.8.52c-.36.5-.44,1.32-1,1.54a1.73,1.73,0,0,0-.37.16.62.62,0,0,0,0,.78,1.31,1.31,0,0,0,.66.38l-.36-.08a11.69,11.69,0,0,1,3.19,2.1A2,2,0,0,1,54,56a3.51,3.51,0,0,1,0,1.71c0,.57,0,1.26.42,1.55.14.11.32.15.44.29.32.37,0,1,.17,1.55a.85.85,0,0,0,1,.58,1.28,1.28,0,0,0,.42-.13Z"/><path d="M60.5,62.75a3.42,3.42,0,0,1-.7-1,5.62,5.62,0,0,0-.6-.87,1.13,1.13,0,0,0-.45-.39.83.83,0,0,0-.69.07.8.8,0,0,1,.34,0,1.41,1.41,0,0,1,.45.39,7.58,7.58,0,0,1,.6.88,3.24,3.24,0,0,0,.7,1,.77.77,0,0,0,.91.07A.83.83,0,0,1,60.5,62.75Z"/></g><polygon class="cls-11" points="105.91 74.16 103.38 74.2 98.16 64.7 97.28 63.11 97.95 59.09 98.47 60.07 105.91 74.16"/><polygon class="cls-11" points="83.03 62.48 81.99 64.04 78.88 59.83 77.46 57.9 78.31 56.75 78.97 57.55 83.03 62.48"/><path class="cls-3" d="M79,57.54c0,.08,0,.17,0,.25l-.1,2L77.46,57.9l.85-1.15Z"/><polygon class="cls-3" points="98.47 60.07 98.16 64.7 97.28 63.11 97.95 59.09 98.47 60.07"/><path class="cls-11" d="M76,60.51s-1.25-9.33,3.3-10.73l.18,0c1.05-.12,10.8-1.25,15.87.09,0,0,3.46.52,3.42,2.38L97.25,74.94h-2.5l.82-15s1.19-6.55-.78-7-10.94-1.19-14.1-.3c0,0-2.3-.52-1.93,5.17l-.15,3.06Z"/><path class="cls-5" d="M83.59,63.28A1.45,1.45,0,0,0,83,62c-.7-.52-2.85-1.67-2.85-1.67l-.7.06-2.09,5.19.14,11,3.77,4.66Z"/><path class="cls-3" d="M83.59,63.28A1.45,1.45,0,0,0,83,62c-.7-.52-2.85-1.67-2.85-1.67l-.7.06-2.09,5.19.14,11,3.77,4.66Z"/><path class="cls-5" d="M68.57,74.83l.07-11.31s-.34-4.39,2.29-4.46c0,0,6.18,0,8.87.91a.61.61,0,0,1,.39.76l0,.11c-.53.93-1.44,3.4-1.87,9.72v6.78Z"/><polygon class="cls-5" points="81.61 82.06 70.36 81.79 70.35 81.79 64.82 81.66 65.46 74.27 68.53 74.38 78.29 76.56 81.28 81.25 81.61 82.06"/><polygon class="cls-3" points="81.61 82.06 70.36 81.79 70.35 81.79 64.82 81.66 65.46 74.27 68.53 74.38 78.29 76.56 81.28 81.25 81.61 82.06"/><polygon class="cls-5" points="81.61 82.06 70.36 81.79 70.17 76.84 78.29 76.56 81.28 81.25 81.61 82.06"/><path class="cls-22" d="M70.35,81.79l-5.53-.13.64-7.4s1.73,2.77,4.71,2.57Z"/><path class="cls-11" d="M110,87.77c-.22,2.12-1.73,1.79-1.73,1.79l-.28,0-2.79-.25.12-3.29a12.27,12.27,0,0,1,2.82.17C109.23,86.37,110.14,86.83,110,87.77Z"/><path class="cls-23" d="M71.32,55.63s-5.14,2.35-5.51,3-2.9,3.56-2.9,3.56L64,64.06l5.08-4Z"/><path class="cls-24" d="M67.41,67.61,65,67.25l-1.75,2.06s-2.44,1.21-2.72,1.74S59.39,73.13,59,73.14s-.76.58-.76.81a11.68,11.68,0,0,1-1.86,3,2.58,2.58,0,0,0-1,1.16A14.82,14.82,0,0,1,54,79.9a33,33,0,0,1-2.73,3.84c-.35.12-1.72,2.52-2.07,2.8s-1.32.54-1.2.78,2.51,3.49,2.36,4.42c0,0,1.78-1.41,1.85-1.84a18.79,18.79,0,0,1,2.27-2.72L66,75.21l2.22-7.55Z"/><path class="cls-3" d="M73.79,71.45s.47,5.45-1.1,6.27-2.64.73-2.94,1.09-2.15.69-2.34,1S62.05,83,62.05,83,58.52,85.12,58,85.58,54.4,87.35,53.89,88a33.92,33.92,0,0,1-3.74,2.66s-.95-2.9-2-3.16c0,0,2.61-.51,2.76-.92s.94-.85.94-.85,3.71-2.16,3.83-2.64,1-1.18,1-1.18,1.47-2,2-2.21a38.32,38.32,0,0,0,3.76-3.5,14.63,14.63,0,0,0,2.44-1.54,40.77,40.77,0,0,1,4.39-2.53l-4.73-5.88L66,65.77,70.47,67l.79,1.44Z"/><path class="cls-24" d="M74.06,71.53S74.53,77,73,77.8s-2.64.73-2.94,1.09-2.15.69-2.34,1-5.36,3.21-5.36,3.21-3.53,2.08-4.09,2.53-3.56,1.78-4.08,2.4a32,32,0,0,1-3.74,2.67s-.94-2.9-2-3.16c0,0,2.62-.52,2.77-.93s.93-.85.93-.85,3.72-2.16,3.83-2.64,1-1.18,1-1.18,1.48-2,2-2.21a38.25,38.25,0,0,0,3.76-3.5,14.21,14.21,0,0,0,2.43-1.54c.25-.38-1.87-5.41-1.87-5.41l1.54-3,1.49-.46L70.74,67l.8,1.44Z"/><path class="cls-25" d="M79.31,57.28,75.7,59.79s-4.36-1.62-2.64-2.27c1.13-.42,1.54-2.62,1.68-4.09.08-.76.08-1.32.08-1.32s4.93,0,4,1.56a2.52,2.52,0,0,0-.3,1.42A4.92,4.92,0,0,0,79.31,57.28Z"/><path class="cls-3" d="M78.53,55.1a3.47,3.47,0,0,1-3.8-1.66c.08-.77.08-1.32.08-1.32s4.93,0,4,1.56A2.49,2.49,0,0,0,78.53,55.1Z"/><path class="cls-25" d="M81.09,52.63a3.57,3.57,0,1,1,.07-.32C81.14,52.41,81.12,52.52,81.09,52.63Z"/><path class="cls-3" d="M74.15,55.88s-.61,0-.64.86-.66.8-.66.8l-2.84,3s-1.28,3.07-1.27,3.19-.29.64-.22.9,0,1.06-.27,1a.55.55,0,0,0-.62.56c0,.39-2,1.59-1.92,1.88s5.71,3.28,5.71,3.28l2.34,1.82L76,69l1.82-5.61,1-3.26.84-.94L79.24,57s-.35-1-.63-.82-1.32,1.26-2.3,1.36-1.54.21-1.77,0S72.94,57.18,74.15,55.88Z"/><path class="cls-3" d="M74.35,55.59a.83.83,0,0,0-.77.88c0,.86-.65.8-.65.8l-2.84,3s-1.28,3.06-1.27,3.18-.29.64-.22.91,0,1.05-.27,1a.57.57,0,0,0-.63.57c0,.39-2,1.58-1.91,1.87S71.5,71,71.5,71l2.34,1.82L76,68.76l1.82-5.61,1-3.26.84-.94-.39-2.2s-.34-1-.62-.81-1.33,1.25-2.3,1.35-1.54.21-1.77,0S74.54,56.82,74.35,55.59Z"/><path class="cls-26" d="M74.32,55.68a.83.83,0,0,0-.76.88c0,.86-.65.8-.65.8l-2.85,3s-1.28,3.06-1.27,3.18-.29.64-.22.91,0,1-.26,1a.56.56,0,0,0-.63.57c0,.39-2,1.58-1.92,1.87s5.71,3.28,5.71,3.28l2.34,1.82L76,68.85l1.83-5.61,1-3.26.83-.94-.38-2.2s-.35-1-.63-.81-1.32,1.25-2.29,1.35-1.55.21-1.78,0S74.51,56.92,74.32,55.68Z"/><path class="cls-3" d="M74.34,55.67a4.81,4.81,0,0,1-1-.19,7.09,7.09,0,0,0-1.64,0s-1.48.09-1.76.52-1.45,2.74-1.85,2.89-2.8,4-3.29,4.33a35.4,35.4,0,0,0-2.59,4.46s1.56-.74,2.27.34a.26.26,0,0,1,.05.09c.69,1.19,1.32.27,1.32.27a30.31,30.31,0,0,0,2.45-2.42c.18-.36,1.52-3.06,1.86-3.81s3.27-4.43,3.36-4.6S74.34,55.67,74.34,55.67Z"/><path class="cls-23" d="M74.34,55.67a7.83,7.83,0,0,1-1.17-.24,6.57,6.57,0,0,0-1.64,0s-1.48.09-1.76.51-1.45,2.75-1.85,2.89-2.8,4-3.28,4.33A35.12,35.12,0,0,0,62,67.6s1.56-.74,2.27.34a.22.22,0,0,1,0,.08c.69,1.2,1.32.28,1.32.28a32.07,32.07,0,0,0,2.45-2.42c.18-.36,1.52-3.07,1.87-3.81s3.26-4.43,3.36-4.6Z"/><path class="cls-3" d="M78.68,55.81a15.61,15.61,0,0,1,2.11,1.77,15.38,15.38,0,0,0,2.7,1.7s.92,1.71.78,2.32a3.42,3.42,0,0,0-.16,1.53c.12.33.19.33,0,.76s-.11.47.13.86-3.69,1.58-3.69,1.58-.53.09-.59.34-3.08,6.91-3.52,8-1.82,5.28-3,5.34-.26,0-.26,0,.18-3.43-.54-4.62.7-5.77.7-5.77S78.06,56.11,78.68,55.81Z"/><path class="cls-23" d="M78.68,55.81A15.89,15.89,0,0,1,81,57.64a15.38,15.38,0,0,0,2.7,1.7s.92,1.7.79,2.32a3.41,3.41,0,0,0-.17,1.52c.12.33.2.33,0,.76s-.12.47.13.86-3.7,1.59-3.7,1.59-.53.08-.58.33-3.09,6.91-3.53,8S74.81,80,73.65,80s-.26,0-.26,0,.17-3.44-.54-4.63.71-5.77.71-5.77S78.06,56.11,78.68,55.81Z"/><path class="cls-25" d="M81.06,69.41a30,30,0,0,0-4.28,1.18c-.13.27-3.57,2.32-1.77,3.31s4.64-1.4,4.64-1.4l2.24-1.43Z"/><path class="cls-23" d="M82.92,63.87c.06,0,1.51.93,1.51.93s.68,2.27.83,2.82a15,15,0,0,1,.5,1.73c0,.18.42,1.21-.28,1.68s-1.43.4-1.76.71a18.12,18.12,0,0,1-2.94,1.4c-.3.08,1.44-3.45-.7-4,0,0,1.53.15,1.61-.12s.17-1-.12-1.23-1.52-1.47-1.52-1.47Z"/><path class="cls-3" d="M81.16,52.31a1,1,0,0,1-.41-.43c-.14-.28-.28-.61-.59-.68-.16-.05-.37,0-.5-.12a.54.54,0,0,1-.09-.38,1.61,1.61,0,0,0-.25-.88,1,1,0,0,0-.79-.41c-.43,0-.8.42-1.22.35-.19,0-.37-.16-.55-.11a.57.57,0,0,0-.19.1,2.79,2.79,0,0,0-.88,1.19c-.18.45-.24.93-.44,1.36-.09.17-.25.35-.43.3s-.13-.44-.28-.59a.47.47,0,0,0-.22-.09,3.46,3.46,0,1,1,6.89-.56A3.35,3.35,0,0,1,81.16,52.31Z"/><path class="cls-27" d="M74.85,52.51c.18.05.34-.13.43-.3.2-.43.26-.91.44-1.36a2.76,2.76,0,0,1,.88-1.18.45.45,0,0,1,.19-.11c.18-.05.36.07.55.11.42.08.79-.32,1.22-.34a.92.92,0,0,1,.79.4,1.7,1.7,0,0,1,.25.88.5.5,0,0,0,.1.38c.12.13.32.08.49.12s.45.4.59.68.43.56.71.44a1.49,1.49,0,0,1,.25-.13c.16-.06.35,0,.5-.06s.13-.39,0-.58-.26-.4-.19-.6a.86.86,0,0,1,.2-.26,1.27,1.27,0,0,0-.07-1.74c-.12-.11-.26-.19-.37-.3a3.64,3.64,0,0,1-.53-.79,2.36,2.36,0,0,0-.84-.79,1.25,1.25,0,0,0-.49-.17,4.43,4.43,0,0,0-.72.09c-.8.08-1.48-.55-2.27-.73a.62.62,0,0,0-.53.07c-.16.12-.19.34-.27.52a1.61,1.61,0,0,1-.94.85c-.47.18-1.06.27-1.25.73s0,.85,0,1.27a2.54,2.54,0,0,1-.5.85.92.92,0,0,0-.16.94.86.86,0,0,0,.42.33c.22.09.71,0,.86.19S74.57,52.43,74.85,52.51Z"/><path class="cls-3" d="M82.68,67.83c.08,0,1.52.27,1.86.75S82.68,67.83,82.68,67.83Z"/><path class="cls-3" d="M82,66.29a11.84,11.84,0,0,1,1.76.51A10.74,10.74,0,0,1,82,66.29Z"/><path class="cls-3" d="M82.47,62.41s1.16.51,1.29.82S82.47,62.41,82.47,62.41Z"/><path class="cls-3" d="M67.67,75.54c.12.08,3,2.19,2.73,2.27A20.17,20.17,0,0,1,67.67,75.54Z"/><path class="cls-3" d="M67.65,76.86S69.32,77.67,69,78,67.65,76.86,67.65,76.86Z"/><g class="cls-21"><path d="M74,49.43c.08-.36-.07-.75,0-1.1h0c-.17.39,0,.84,0,1.25A1,1,0,0,0,74,49.43Z"/><path d="M82.12,50.68a.2.2,0,0,0,0,.11,1.46,1.46,0,0,1,.16-.19,1.11,1.11,0,0,0,.28-.55,1.25,1.25,0,0,1-.22.37A.63.63,0,0,0,82.12,50.68Z"/><path d="M82.29,51.86c-.14.09-.34,0-.5.06s-.16.1-.24.13c-.29.12-.58-.17-.72-.44s-.28-.61-.58-.69-.38,0-.5-.11a.49.49,0,0,1-.1-.38,1.53,1.53,0,0,0-.25-.88,1,1,0,0,0-.78-.41c-.43,0-.81.43-1.23.35-.19,0-.37-.16-.55-.11a.69.69,0,0,0-.19.1,2.88,2.88,0,0,0-.88,1.19,3,3,0,0,0-.13.39,1.72,1.72,0,0,1,.07-.21,2.82,2.82,0,0,1,.88-1.19.72.72,0,0,1,.19-.11c.19,0,.37.08.55.11.42.08.79-.31,1.23-.34a.93.93,0,0,1,.78.41,1.53,1.53,0,0,1,.25.88.5.5,0,0,0,.1.38c.12.12.33.07.5.11s.44.41.58.68.43.57.72.45a1.88,1.88,0,0,1,.24-.14c.17-.05.36,0,.5-.05a.25.25,0,0,0,.12-.24A.17.17,0,0,1,82.29,51.86Z"/><path d="M75.33,52c-.08.17-.24.35-.42.3s-.14-.44-.29-.59-.64-.1-.86-.19a.86.86,0,0,1-.42-.33.59.59,0,0,1-.06-.45.7.7,0,0,0,0,.63.84.84,0,0,0,.43.33c.22.09.71,0,.85.19s0,.5.29.59.34-.14.42-.3a2.78,2.78,0,0,0,.21-.57A2.62,2.62,0,0,1,75.33,52Z"/></g><path class="cls-3" d="M69.44,58.68s-1.14,1.69-1,2S69.44,58.68,69.44,58.68Z"/><path class="cls-3" d="M69.6,64.2a3.41,3.41,0,0,1,.83.49C70.65,64.93,69.6,64.2,69.6,64.2Z"/><path class="cls-3" d="M70.93,65.93s1.29.32,1.4.52S70.93,65.93,70.93,65.93Z"/><path class="cls-3" d="M71.15,67.7s1.17.15,1.3.6S71.15,67.7,71.15,67.7Z"/><path class="cls-3" d="M110,87.77c-.22,2.12-1.73,1.79-1.73,1.79l-.28,0a2.87,2.87,0,0,1-.44-1.59,2.66,2.66,0,0,1,.59-1.78C109.23,86.37,110.14,86.83,110,87.77Z"/><path class="cls-13" d="M66.93,60c-2.55,0-4.61,2.79-4.61,6.23s2.06,6.23,4.61,6.23,4.61-2.79,4.61-6.23S69.48,60,66.93,60Zm-.65,11.16c-1.94,0-3.52-2-3.52-4.52s1.58-4.52,3.52-4.52,3.51,2,3.51,4.52S68.22,71.15,66.28,71.15Z"/><polygon class="cls-13" points="67.15 68.13 69.31 70.25 70.09 68.36 66.97 66.53 67.15 68.13"/><polygon class="cls-5" points="70.33 47.15 72.21 47.37 72.91 48.2 71.85 52.96 69.61 60.62 68.13 65.88 67.1 69.07 66.44 73.29 65.78 76.2 63.8 78.18 59.77 73.43 59.11 71.84 57.52 68.61 61.62 66.69 66.11 66.3 68.22 60.88 69.94 54.61 70.33 47.15"/><polyline class="cls-5" points="32.33 69.81 29.88 90.42 60.79 89.11 57.22 79 51.27 75.13 64.88 75.35 64.96 69.7 59.45 68.5 48.37 67.61 40.03 67.24 32.07 69.84"/><polyline class="cls-3" points="32.33 69.81 29.88 90.42 60.79 89.11 57.22 79 51.27 75.13 64.88 75.35 64.96 69.7 59.45 68.5 48.37 67.61 40.03 67.24 32.07 69.84"/><path class="cls-13" d="M74.57,90.34c0,5.13-1.71,9.79-6.43,9.28-6-.13-6.42-4.15-6.42-9.28s2.88-8.93,6.42-8.93S74.57,85.22,74.57,90.34Z"/><path class="cls-3" d="M74.6,90.35c0-4-1.72-7.14-4.15-8.37-3.11.59-5.5,4.17-5.5,8.84,0,4.2.31,7.66,3.7,8.84C73,99.82,74.6,95.3,74.6,90.35Z"/><polygon class="cls-5" points="80.63 82.31 78.82 84.39 82.09 83.83 84.53 81.58 86.71 77.22 89.78 75.34 97.31 76.36 104.27 76.63 106.84 74.34 103.97 73.95 101.07 73.89 93.77 73.72 85.09 73.49 83.31 78.25 81.95 81.52 80.63 82.31"/><path class="cls-5" d="M105.62,90.79a46.46,46.46,0,0,1-5,1L87.13,94.21,64,94.54l-2.71-2.3-1.43.25h-.06l-19,3.38-.31,0-5.19-.74L8.12,91.23l.3-3.93L8.6,85,9,80.15l.26-1.27,2.42-.22,1.13-.1,17.6-1.62,2.3-.21L34,76.61,46.55,74.9l18.33.44L65,69.69l7.25-22.32c1.6.26,1.56,1.34,1.56,1.34l-6.17,21-.08,12.91c12.85,1.29,13.26-1.5,15.29-.56l2.46-7.85,21.57.11C107.71,75.39,105.62,90.79,105.62,90.79Z"/><polygon class="cls-5" points="52.09 79.07 58.93 93.76 61.24 94.51 61.79 92.13 59.23 83.98 56.59 79.26 52.09 79.07"/><polygon class="cls-28" points="52.09 79.07 58.93 93.76 61.24 94.51 61.79 92.13 59.23 83.98 56.59 79.26 52.09 79.07"/><ellipse class="cls-13" cx="47.63" cy="95.25" rx="12.4" ry="14.06"/><path class="cls-3" d="M52.05,82.07c-6.48.45-11.62,6.56-11.62,14,0,6,3.34,11.16,8,13.16,6.49-.45,11.62-6.56,11.62-14C60.08,89.21,56.74,84.07,52.05,82.07Z"/><path class="cls-5" d="M14.4,70.66l-.61,2.9-1.88,8.86-8.07-.78s-.49-1.49.78-2c0,0,.41-5,1.91-6.62a1.5,1.5,0,0,1,.58-.41Z"/><path class="cls-22" d="M13.79,73.56l-1.88,8.86-8.07-.78s-.49-1.49.78-2c0,0,.41-5,1.91-6.62Z"/><path class="cls-5" d="M32.59,71.45c1,1.74-1.48,17.85-1.48,17.85L11.28,86,12,71.93c.41-2.53,1.9-2.83,1.9-2.83,7-3.53,23.06-4.28,23.06-4.28a117.91,117.91,0,0,1,28,4.87C48.29,67.13,32.59,71.45,32.59,71.45Z"/><path class="cls-3" d="M31.11,89.3,11.28,86,12,71.93c.41-2.53,1.9-2.83,1.9-2.83s14.47-1.38,18.71,2.35C33.63,73.19,31.11,89.3,31.11,89.3Z"/><path class="cls-5" d="M29,88.37,12.43,85.58l.59-12c.34-2.16,1.58-2.41,1.58-2.41s12.1-1.18,15.65,2C31.12,74.63,29,88.37,29,88.37Z"/><ellipse class="cls-3" cx="27.64" cy="78.47" rx="2.27" ry="4.13"/><ellipse class="cls-11" cx="27.64" cy="78.36" rx="2.27" ry="4.13"/><path class="cls-12" d="M27.94,75.31s-.92.15-.45,1.38a8.92,8.92,0,0,1,.56,1.86s.93.48.89-1.12A2.37,2.37,0,0,0,27.94,75.31Z"/><ellipse class="cls-3" cx="15.48" cy="76.84" rx="2.12" ry="3.86"/><ellipse class="cls-11" cx="15.48" cy="76.73" rx="2.12" ry="3.86"/><path class="cls-12" d="M15.78,73.67s-.93.15-.45,1.38a8.92,8.92,0,0,1,.56,1.86s.92.48.89-1.11A2.4,2.4,0,0,0,15.78,73.67Z"/><path class="cls-3" d="M25,75c-.14,1.52-.89,12.83-.89,12.83l-1.26-.21-.7-.12-.94-.15-.11,0-3.68-.62.72-12a1.52,1.52,0,0,1,1.53-1.41h.11l.82.08.36,0q.54.06,1.08.15l.54.1c.3.06.59.12.86.2L24,74C24.65,74.27,25.08,74.58,25,75Z"/><path class="cls-5" d="M19.7,73.29,19,86.76l-.41,0,.71-13.39A1.51,1.51,0,0,1,19.7,73.29Z"/><path class="cls-5" d="M21,73.42,20.32,87h-.64l.95-13.66Z"/><path class="cls-5" d="M22.61,73.67,21.54,87.33h-.41v0l.94-13.74Z"/><path class="cls-5" d="M24,74,22.88,87.6v0l-.7-.08v-.07l1.28-13.61A5.36,5.36,0,0,1,24,74Z"/><path class="cls-3" d="M8.85,84.54s-1.37-7.06,1.76-7.42,13.39.39,13.08,3.29-.64,7.31-.64,7.31l-2.12-.48s1.59-6.64-.89-6.89-8.56-.95-8.56-.95-1.65-.28-.7,5.55Z"/><path class="cls-11" d="M8.85,85.21s-1.37-7.51,1.76-7.87,13.39.4,13.08,3.29-.64,7.31-.64,7.31l-2.12-.47s1.59-6.64-.89-6.89-8.57-1-8.57-1-1.64.17-.7,6Z"/><path class="cls-5" d="M64,94.54l-2.75,0a53.28,53.28,0,0,0-5.32-14.36c-1.12-.6-13.32-.52-13.32-.52-1.27.23-1.6,4.25-1.6,4.25s1.08.92,0,1.52a10.28,10.28,0,0,1-3.76.22,29.54,29.54,0,0,1-6.06-.85c-2.38-.75-.49-2.12-.49-2.12s.34-.45.56-2.91a9.93,9.93,0,0,1,1.36-4c.1-.17.17-.27.17-.27a1.36,1.36,0,0,1,.43-.27c3.15-1.32,18.61-.06,18.61-.06l5.73,1.82a2.81,2.81,0,0,1,.7,1.12C60.11,81.91,64,94.54,64,94.54Z"/><path class="cls-3" d="M64,94.54l-2.75,0a53.28,53.28,0,0,0-5.32-14.36c-1.12-.6-13.32-.52-13.32-.52-1.27.23-1.6,4.25-1.6,4.25s1.08.92,0,1.52a10.28,10.28,0,0,1-3.76.22,29.54,29.54,0,0,1-6.06-.85c-2.38-.75-.49-2.12-.49-2.12s.34-.45.56-2.91a9.93,9.93,0,0,1,1.36-4c.1-.17.17-.27.17-.27a1.36,1.36,0,0,1,.43-.27c3.15-1.32,18.61-.06,18.61-.06l5.73,1.82a2.81,2.81,0,0,1,.7,1.12C60.11,81.91,64,94.54,64,94.54Z"/><path class="cls-5" d="M58.29,78c-5.28-2-19.86-1-19.86-1-1.55-1.32-4.46-1.41-5.78-1.37.1-.17.17-.27.17-.27a1.21,1.21,0,0,1,.43-.27c3.15-1.32,18.61-.06,18.61-.06l5.73,1.82C57.75,77,58,77.38,58.29,78Z"/><path class="cls-5" d="M39.29,77.62l-1.71,5.77a20.61,20.61,0,0,0-.3,2.23,30.28,30.28,0,0,1-6.06-.86c-2.38-.74-.49-2.12-.49-2.12s.34-.45.56-2.91a10,10,0,0,1,1.53-4.31,1.21,1.21,0,0,1,.43-.27C35.32,75.64,39.54,76.75,39.29,77.62Z"/><path class="cls-22" d="M39.29,77.62l-1.71,5.77a20.61,20.61,0,0,0-.3,2.23,30.28,30.28,0,0,1-6.06-.86c-2.38-.74-.49-2.12-.49-2.12s.34-.45.56-2.91a10,10,0,0,1,1.53-4.31,1.21,1.21,0,0,1,.43-.27C35.32,75.64,39.54,76.75,39.29,77.62Z"/><path class="cls-5" d="M42.69,48.32c-1.48.23-2.12,3.29-2.12,3.29L36.55,65,65,69.69l7.25-22.31C65.54,44.36,42.69,48.32,42.69,48.32ZM65.54,62.66s-.17,1.29-1.26,1.4l-18.41-.72-3.78-.15-1.26,0h-.09s-1.4.25-1.18-.92c0,0,1.54-11.16,4.25-12l.77-.15c.77-.15,2.07-.38,3.59-.59l2.15-.26a32.88,32.88,0,0,1,6.07-.15S70,47.82,69,50.83c0,0-2.84,10.91-3.43,11.83Z"/><path class="cls-5" d="M40.83,63.14h-.09s-1.4.25-1.17-.92c0,0,1.53-11.16,4.24-12l.77-.15C43.6,52,40.45,58.55,40.83,63.14Z"/><path class="cls-3" d="M40.83,63.14h-.09s-1.4.25-1.17-.92c0,0,1.53-11.16,4.24-12l.77-.15C43.6,52,40.45,58.55,40.83,63.14Z"/><path class="cls-3" d="M43.33,90.67a1.8,1.8,0,0,1-1.68.94l-.57,0-5.36-.23-1.94-.08L32,91.12,8.42,87.29,8.6,85l2.71.39,1.12.16,16.65,2.37,2.19.33,1.06.15,4.5,0,4.88,0a2,2,0,0,1,.72.13,1.8,1.8,0,0,1,.94.9A1.47,1.47,0,0,1,43.33,90.67Z"/><path class="cls-11" d="M43.33,90.89a1.8,1.8,0,0,1-1.68.94l-7.87-.34L32,91.34,6.85,87.27l-2-.33L3.8,86.76A2,2,0,0,1,2.31,84.2c.15-1,3.8-1.86,5-1.83.8,0,.91,1.26.89,2.07a5.59,5.59,0,0,1,0,.69l1.18.17,23,3.29,9.38-.07a1.8,1.8,0,0,1,1.66,1A1.47,1.47,0,0,1,43.33,90.89Z"/><path class="cls-3" d="M5.58,83.72a4.31,4.31,0,0,0,2.57,1.41A2.81,2.81,0,0,0,5.58,83.72Z"/><path class="cls-3" d="M5.32,87.18S2,87.1,2,88.9,4.1,91,4.1,91l29.57,5.69,8.41.15S45,94.47,42,93.43l-8.48.22L5.29,88.48S6,87.48,5.32,87.18Z"/><path class="cls-11" d="M42.08,97l-8.41-.15L7.38,91.83l-1.93-.37L4.1,91.19S2,90.89,2,89.11c0-1.28,1.71-1.61,2.67-1.69a6,6,0,0,1,.64,0c.71.3,0,1.3,0,1.3l1,.19,27.18,5L42,93.65C45,94.69,42.08,97,42.08,97Z"/><path class="cls-11" d="M7.82,85.73,9.57,85l.89,0-.08,7.51-2.75-.55-1.15-.75L5.92,88a8.83,8.83,0,0,1,.33-1.42C6.37,86.47,7.82,85.73,7.82,85.73Z"/><path class="cls-3" d="M7.82,85.73,9.57,85l.89,0-.08,7.51-2.75-.55-1.15-.75L5.92,88a8.83,8.83,0,0,1,.33-1.42C6.37,86.47,7.82,85.73,7.82,85.73Z"/><path class="cls-3" d="M7.38,91.83l0,0-1.94-.38,0,0a4.73,4.73,0,0,1-.77-4,6,6,0,0,1,.64,0c.71.3,0,1.3,0,1.3l1,.19A4.76,4.76,0,0,0,7.38,91.83Z"/><path class="cls-3" d="M10.24,84.92a8.58,8.58,0,0,0-.91.39,5.89,5.89,0,0,0-2.48,2l-2-.33a6,6,0,0,1,2.91-2.59l.41.09Z"/><path class="cls-11" d="M8,84.35s-5.43,2.16-2.31,7.14l1.94.38s-3.83-4.39,2.82-7Z"/><polygon class="cls-11" points="20.95 86.77 22.96 86.7 22.62 94.77 19.39 94.17 18.01 93.5 17.38 91.9 16.93 90.3 18.01 88.85 19.24 88.03 20.95 86.77"/><polygon class="cls-3" points="20.95 86.77 22.96 86.7 22.62 94.77 19.39 94.17 18.01 93.5 17.38 91.9 16.93 90.3 18.01 88.85 19.24 88.03 20.95 86.77"/><ellipse class="cls-11" cx="20.73" cy="90.94" rx="0.97" ry="1.64"/><path class="cls-11" d="M13.7,95.5a2.14,2.14,0,0,0-1.36-1.73,1.61,1.61,0,0,0-2.15,1.71s0,1.42,1,1.87l.05,1.59s.08,1.47-.75,1.33-.73-1.45-.73-1.45-.44-1.39-1.53-.67a1.09,1.09,0,0,0,.31,1.17,1.11,1.11,0,0,1,.29,1.05,1.53,1.53,0,0,0,.34,1.21,1.43,1.43,0,0,0,1.35.48,2,2,0,0,0,1.16-.67,3,3,0,0,0,.8-2l0-2A1.59,1.59,0,0,0,13.7,95.5ZM12,96.94a1.19,1.19,0,1,1,1.19-1.19h0A1.2,1.2,0,0,1,12,96.93Z"/><path class="cls-13" d="M11.5,93.16a.52.52,0,0,0-.28.69.08.08,0,0,0,0,0A3.45,3.45,0,0,1,11.69,95c0,.24.49,0,.56,0s1,0,1.09-.66a1.13,1.13,0,0,0-.52-1l.23-1.43-1.32-.12v1.32Z"/><path class="cls-3" d="M11.5,93.16a.52.52,0,0,0-.28.69.08.08,0,0,0,0,0A3.45,3.45,0,0,1,11.69,95c0,.24.49,0,.56,0s1,0,1.09-.66a1.13,1.13,0,0,0-.52-1l.23-1.43-1.32-.12v1.32Z"/><path class="cls-3" d="M11.86,93.13s.45,1.54.25,1.59S11.86,93.13,11.86,93.13Z"/><path class="cls-3" d="M12.36,92.77s.45,1.53.26,1.58S12.36,92.77,12.36,92.77Z"/><path class="cls-13" d="M17.71,88.15,17,92.76s-.93-.13-1.43-.24a.92.92,0,0,1-.32-.1.19.19,0,0,0-.15,0h0c-.25,0-.69.25-.78.08a.05.05,0,0,0,0,0h0c-.09-.09-.26,0-.42,0a.42.42,0,0,1-.27,0c-.13-.1-.41,0-.64.1s-.26,0-.33-.1a.27.27,0,0,0-.22-.16h0c-.21-.06-.51,0-.68-.06s-.12,0-.14-.08-.22-.15-.43-.19-.51-.08-.53-.18,0-.05-.07-.05a1.89,1.89,0,0,0-.41.1h0c-.11,0-.2,0-.23,0s-.16-.08-.3-.05l-.35.1c-.1,0-.16,0-.17,0s-.52.19-.63-.11a4,4,0,0,1,.34-4.84s.53,0,.94.11a1.42,1.42,0,0,1,.4.12h0a2.27,2.27,0,0,0,.71.08.9.9,0,0,1,.4.09.25.25,0,0,1,.11.12.36.36,0,0,0,.36.17c.22,0,.45-.1.53,0h0c.16.06.74,0,.84.09h0c0,.07.26,0,.5,0h0a.57.57,0,0,1,.46.07.56.56,0,0,0,.37.11,1.87,1.87,0,0,1,.47,0,.15.15,0,0,1,.09.06c.1.11.32.1.53.11a.53.53,0,0,1,.3.07.24.24,0,0,0,.1.05,3.38,3.38,0,0,0,.9-.05Z"/><path class="cls-3" d="M9.6,91.71l-.35.1A3.68,3.68,0,0,1,9.73,87a1.46,1.46,0,0,1,.39.12A4.49,4.49,0,0,0,9.6,91.71Z"/><path class="cls-3" d="M10.54,91.7a3.11,3.11,0,0,0-.41.11h0a3.69,3.69,0,0,1,.71-4.66.79.79,0,0,1,.4.1A4.34,4.34,0,0,0,10.54,91.7Z"/><path class="cls-3" d="M11.71,92.21a.18.18,0,0,1-.14-.08c0-.1-.22-.15-.43-.19a3.62,3.62,0,0,1,.57-4.41c.21,0,.45-.1.53,0h0A4.48,4.48,0,0,0,11.71,92.21Z"/><path class="cls-3" d="M12.94,92.53c-.14,0-.26,0-.32-.11a.31.31,0,0,0-.23-.15h0a3.68,3.68,0,0,1,.7-4.69h0c0,.06.26,0,.5,0C11.72,89.45,12.69,92,12.94,92.53Z"/><path class="cls-3" d="M14.26,92.46c-.08-.09-.25,0-.42,0a3.68,3.68,0,0,1,.59-4.73,2.43,2.43,0,0,1,.47,0A4.47,4.47,0,0,0,14.26,92.46Z"/><path class="cls-3" d="M15.54,92.52a.92.92,0,0,1-.32-.1.19.19,0,0,0-.15,0h0a3.62,3.62,0,0,1,.45-4.49.53.53,0,0,1,.3.07.21.21,0,0,0,.1,0A4.58,4.58,0,0,0,15.54,92.52Z"/><ellipse class="cls-13" cx="51.6" cy="95.92" rx="6.06" ry="8.93"/><ellipse class="cls-3" cx="51.4" cy="96.05" rx="4.41" ry="7.24"/><ellipse class="cls-12" cx="51.4" cy="95.83" rx="4.41" ry="7.24"/><ellipse class="cls-13" cx="52.2" cy="90.97" rx="0.52" ry="0.89"/><ellipse class="cls-13" cx="54.28" cy="98.79" rx="0.52" ry="0.89"/><ellipse class="cls-13" cx="48.66" cy="95.07" rx="0.52" ry="0.89"/><ellipse class="cls-13" cx="50.19" cy="100.27" rx="0.52" ry="0.89"/><path class="cls-5" d="M96,79.4s4.36,11.61,4.13,12.34c0,0,1.84,1.11,2.29.83s0-5.41,0-5.41l-.83-4.52-1-2.68Z"/><path class="cls-28" d="M96,79.4s4.36,11.61,4.13,12.34c0,0,1.84,1.11,2.29.83s0-5.41,0-5.41l-.83-4.52-1-2.68Z"/><ellipse class="cls-13" cx="55.02" cy="93.95" rx="0.52" ry="0.89"/><ellipse class="cls-13" cx="52.2" cy="96.11" rx="1.53" ry="2.12"/><path class="cls-13" d="M100.84,94.92c0,6.71-2.23,12.83-8.43,12.16C84.6,106.91,84,101.63,84,94.92S87.76,83.2,92.41,83.2,100.84,88.2,100.84,94.92Z"/><path class="cls-3" d="M100.88,94.93c0-5.2-2.26-9.38-5.44-11-4.08.77-7.22,5.47-7.22,11.6,0,5.51.41,10,4.86,11.6C98.8,107.34,100.88,101.42,100.88,94.93Z"/><path class="cls-3" d="M104.13,92.07s-1.12,1-1.73.28c0,0-1.51-12-3.41-12.11l-6.52,0s-.78.33-1.12,1.78L87.12,94,64,94.32l-1.76-3.7,19.14.06h0c.1-.37,3.3-11.79,5.45-13.21h0l.23-.11s8-1.06,10.6-.34c0,0,2.74.62,3.41,1.46h0c.09.09,1.12,1.26,1.44,4.62Z"/><path class="cls-5" d="M104.13,92.29s-1.12.95-1.73.28c0,0-1.51-12-3.41-12.11l-6.52,0s-.78.33-1.12,1.78l-4.23,12L64,94.54l-1.76-3.69,19.14.05h0c.1-.37,3.3-11.79,5.45-13.2h0a1,1,0,0,1,.23-.12s8-1,10.6-.33c0,0,2.74.61,3.41,1.45h0c.09.09,1.12,1.26,1.44,4.62Z"/><path class="cls-3" d="M104.13,92.29s-1.12.95-1.73.28c0,0-1.51-12-3.41-12.11l-6.52,0s-.78.33-1.12,1.78l-4.23,12L64,94.54l-1.76-3.69,19.14.05h0c.1-.37,3.3-11.79,5.45-13.2h0a1,1,0,0,1,.23-.12s8-1,10.6-.33c0,0,2.74.61,3.41,1.45h0c.09.09,1.12,1.26,1.44,4.62Z"/><path class="cls-5" d="M90,79.12c-.56,1.06-5.36,14.12-5.36,14.12L81.36,90.9h0c.1-.37,3.3-11.8,5.45-13.21C88.21,77.92,90.33,78.41,90,79.12Z"/><path class="cls-5" d="M83.71,73.15l-2.63,8.6-13.67-.4.11,1.28s10.72,1.57,15.29-.55l2.46-7.85,21.57.11-4.11-1Z"/><path class="cls-22" d="M83.71,73.15l-2.63,8.6-13.67-.4.11,1.28s10.72,1.57,15.29-.55l2.46-7.85,21.57.11-4.11-1Z"/><path class="cls-3" d="M19.61,86.69s-7.33,3.69-1.9,7.15l1.45.33s-5.31-3.83,3.57-7.48Z"/><path class="cls-11" d="M19.83,86.69s-7.33,3.69-1.89,7.15l1.45.33S14.07,90.34,23,86.69Z"/><ellipse class="cls-13" cx="95.65" cy="95.86" rx="4.07" ry="6.98"/><ellipse class="cls-3" cx="95.51" cy="96.02" rx="2.96" ry="5.65"/><ellipse class="cls-12" cx="95.51" cy="95.79" rx="2.96" ry="5.65"/><ellipse class="cls-13" cx="96.05" cy="92" rx="0.35" ry="0.7"/><ellipse class="cls-13" cx="97.45" cy="98.1" rx="0.35" ry="0.7"/><ellipse class="cls-13" cx="93.67" cy="95.2" rx="0.35" ry="0.7"/><ellipse class="cls-13" cx="94.7" cy="99.27" rx="0.35" ry="0.7"/><ellipse class="cls-13" cx="97.94" cy="94.33" rx="0.35" ry="0.7"/><ellipse class="cls-13" cx="96.05" cy="96.01" rx="1.02" ry="1.66"/><path class="cls-3" d="M36.5,64.84A138.27,138.27,0,0,1,65,69.7Z"/><path class="cls-11" d="M95.6,43.15s-.67.11-.32,1a6.49,6.49,0,0,1,.41,1.35s.67.35.64-.81A1.72,1.72,0,0,0,95.6,43.15Z"/><path class="cls-25" d="M62.65,61.14v0a1.2,1.2,0,0,0-.26.6c-.11.71-.21,2.15.81,1.91a3,3,0,0,0,1.53-.83,1.2,1.2,0,0,0,.34-.92h0a1,1,0,0,0-.42-.81l-.38-.22a.74.74,0,0,0-.36-.09l-.66,0A.81.81,0,0,0,62.65,61.14Z"/><path class="cls-5" d="M70.07,49.06l-2,9.8L66.7,61.8l.92,1.72,2-4.82s2.25-7.06,2.25-7.26A24.66,24.66,0,0,0,70.07,49.06Z"/></g></g></svg>