<svg xmlns="http://www.w3.org/2000/svg" xmlns:xlink="http://www.w3.org/1999/xlink" viewBox="0 0 112.13 116.57"><defs><style>.cls-1{fill:none;stroke:#3ad29f;stroke-miterlimit:10;stroke-width:2px;stroke-dasharray:12;}.cls-2{fill:url(#linear-gradient);}.cls-3{fill:#be7c5e;}.cls-4{fill:url(#linear-gradient-2);}.cls-5{fill:url(#linear-gradient-3);}.cls-6{fill:#fff;}.cls-7{fill:#6c63ff;}.cls-8{fill:#dbdbdb;}.cls-9{fill:url(#linear-gradient-4);}.cls-10{fill:url(#linear-gradient-5);}.cls-11{fill:#4d8af0;}.cls-12{fill:url(#linear-gradient-6);}.cls-13{fill:url(#linear-gradient-7);}.cls-14{opacity:0.5;}.cls-15{fill:url(#linear-gradient-8);}.cls-16{fill:#69f0ae;}.cls-17{fill:url(#linear-gradient-9);}</style><linearGradient id="linear-gradient" x1="300.51" y1="-4011.97" x2="300.51" y2="-3967.74" gradientTransform="matrix(1, 0, 0, -1, -238.99, -3902.12)" gradientUnits="userSpaceOnUse"><stop offset="0" stop-color="gray" stop-opacity="0.25"/><stop offset="0.54" stop-color="gray" stop-opacity="0.12"/><stop offset="1" stop-color="gray" stop-opacity="0.1"/></linearGradient><linearGradient id="linear-gradient-2" x1="273.23" y1="-3936.17" x2="273.23" y2="-3913.33" xlink:href="#linear-gradient"/><linearGradient id="linear-gradient-3" x1="293.76" y1="-3991.14" x2="293.76" y2="-3902.13" gradientTransform="matrix(1, 0, 0, -1, -238.99, -3902.13)" xlink:href="#linear-gradient"/><linearGradient id="linear-gradient-4" x1="321.35" y1="-3982.83" x2="321.35" y2="-3940.43" xlink:href="#linear-gradient"/><linearGradient id="linear-gradient-5" x1="307.89" y1="-4017.63" x2="307.89" y2="-4007.08" gradientTransform="matrix(1, 0, 0, -1, -238.99, -3902.13)" xlink:href="#linear-gradient"/><linearGradient id="linear-gradient-6" x1="269.49" y1="-3967.73" x2="269.49" y2="-3948.86" xlink:href="#linear-gradient"/><linearGradient id="linear-gradient-7" x1="268.76" y1="-3983.38" x2="268.76" y2="-3966.63" xlink:href="#linear-gradient"/><linearGradient id="linear-gradient-8" x1="54.77" y1="-3888.16" x2="54.77" y2="-3860.65" gradientTransform="matrix(1, 0, 0, -1, 0, -3829.9)" xlink:href="#linear-gradient"/><linearGradient id="linear-gradient-9" x1="270.9" y1="-3952.19" x2="270.9" y2="-3931.24" xlink:href="#linear-gradient"/></defs><title>Asset 6</title><g id="Layer_2" data-name="Layer 2"><g id="Layer_1-2" data-name="Layer 1"><circle class="cls-1" cx="56.06" cy="60.51" r="45.43"/><circle class="cls-1" cx="56.06" cy="60.51" r="55.06"/><path class="cls-2" d="M92.92,78.05a12.42,12.42,0,0,0-24.63-2.32l-38.17-1,.41,6.56S25.09,93.82,53.7,97.16v12.7H86.78V88.75A12.43,12.43,0,0,0,92.92,78.05Z"/><path class="cls-3" d="M31.85,81.53S26.63,93.56,54,96.77v12.16H85.71V76.72L31.44,75.25Z"/><path class="cls-4" d="M47.68,31.33h0a5.84,5.84,0,0,1-8,1.83L22.64,22a5.85,5.85,0,0,1-1.83-8h0a5.85,5.85,0,0,1,8-1.82l17,11.2A5.85,5.85,0,0,1,47.68,31.33Z"/><path class="cls-3" d="M46.73,30.72h0a5.43,5.43,0,0,1-7.46,1.7L23.46,22a5.42,5.42,0,0,1-1.7-7.46h0a5.43,5.43,0,0,1,7.46-1.7L45,23.25A5.42,5.42,0,0,1,46.73,30.72Z"/><circle class="cls-3" cx="79.7" cy="78.46" r="11.9"/><rect class="cls-5" x="30.11" width="49.32" height="89.02" rx="1.87" ry="1.87"/><rect class="cls-6" x="30.78" y="1.2" width="47.98" height="86.61" rx="2.09" ry="2.09"/><path class="cls-7" d="M66.82,3.38A3.87,3.87,0,0,1,63,6.68H46.42a3.89,3.89,0,0,1-3.84-3.3H33.8A1.81,1.81,0,0,0,32,5.2h0V83.82a1.82,1.82,0,0,0,1.82,1.82H75.73a1.82,1.82,0,0,0,1.83-1.82h0V5.2a1.82,1.82,0,0,0-1.82-1.82H66.82Z"/><rect class="cls-8" x="49.49" y="4.41" width="10.69" height="0.67" rx="0.31" ry="0.31"/><circle class="cls-8" cx="62.45" cy="4.68" r="0.4"/><path class="cls-9" d="M87.38,80.56h0c-3.45.79-5.82-1.46-6.62-4.91L72.83,46.2a6.46,6.46,0,0,1,4.83-7.73h0a6.46,6.46,0,0,1,7.72,4.83l6.48,30.21A5.58,5.58,0,0,1,87.38,80.56Z"/><path class="cls-3" d="M78,40h0A5.42,5.42,0,0,1,84.49,44l7.3,31.57a5.42,5.42,0,0,1-4.06,6.49h0a5.41,5.41,0,0,1-6.49-4L74,46.46A5.41,5.41,0,0,1,78,40Z"/><rect class="cls-10" x="46.26" y="104.95" width="45.28" height="10.55"/><rect class="cls-11" x="47.49" y="106.18" width="42.83" height="8.26"/><path class="cls-12" d="M41.07,62.93h0a5.77,5.77,0,0,1-7.93,1.81L21.73,57.36a5.78,5.78,0,0,1-1.8-7.94h0a5.78,5.78,0,0,1,7.94-1.8L39.27,55A5.76,5.76,0,0,1,41.07,62.93Z"/><path class="cls-13" d="M38.21,78.55h0a5.81,5.81,0,0,1-8,1.82l-7.07-5.15a5.82,5.82,0,0,1-1.82-8h0a5.82,5.82,0,0,1,8-1.82l7.06,5.15A5.81,5.81,0,0,1,38.21,78.55Z"/><g class="cls-14"><circle class="cls-15" cx="54.77" cy="44.51" r="13.76"/></g><circle class="cls-16" cx="54.77" cy="44.51" r="12.95"/><polygon class="cls-6" points="49.15 42.78 54 47.23 60.88 37.12 63.31 39.14 54 51.28 47.12 43.59 49.15 42.78"/><path class="cls-3" d="M37.64,78.17h0a5.43,5.43,0,0,1-7.46,1.7l-6.59-4.8a5.43,5.43,0,0,1-1.7-7.46h0a5.43,5.43,0,0,1,7.47-1.7l6.58,4.81A5.42,5.42,0,0,1,37.64,78.17Z"/><path class="cls-3" d="M40.45,62.53h0A5.43,5.43,0,0,1,33,64.22L22.25,57.28a5.42,5.42,0,0,1-1.69-7.46h0A5.42,5.42,0,0,1,28,48.12l10.73,6.94A5.44,5.44,0,0,1,40.45,62.53Z"/><path class="cls-17" d="M44,47.38h0a5.79,5.79,0,0,1-8,1.82L21.6,39.78a5.8,5.8,0,0,1-1.81-8h0a5.8,5.8,0,0,1,8-1.81l14.45,9.41A5.79,5.79,0,0,1,44,47.38Z"/><path class="cls-3" d="M43.26,46.9h0a5.43,5.43,0,0,1-7.47,1.69L22.25,39.78a5.43,5.43,0,0,1-1.69-7.47h0A5.42,5.42,0,0,1,28,30.62l13.54,8.81A5.44,5.44,0,0,1,43.26,46.9Z"/></g></g></svg>